<svg xmlns="http://www.w3.org/2000/svg" viewBox="0 0 121.08 27.96">
    <defs>
        <style>.cls-1{fill:url(#Безымянный_градиент_16);}</style>
        <linearGradient id="Безымянный_градиент_16" x1="4.09" y1="23.86" x2="23.86" y2="4.09"
                        gradientUnits="userSpaceOnUse">
            <stop offset="0" stop-color="#18aff2"/>
            <stop offset="0.27" stop-color="#5f52d8"/>
            <stop offset="0.53" stop-color="#aa42b9"/>
            <stop offset="0.75" stop-color="#f44d61"/>
            <stop offset="1" stop-color="#fe7443"/>
        </linearGradient>
    </defs>
    <g id="Слой_2" data-name="Слой 2">
        <g id="Слой_1-2" data-name="Слой 1">
            <path class="cls-1"
                  d="M14,0A14,14,0,1,0,27.37,18H19.46a6.81,6.81,0,1,1,0-8.08h2.52a9,9,0,1,0-1.45,10.16h3.7a11.89,11.89,0,1,1,1.65-7.17H17.37a3.57,3.57,0,1,0,0,2.1H27.91c0-.34.05-.68.05-1A14,14,0,0,0,14,0Zm0,15.49A1.51,1.51,0,1,1,15.49,14,1.5,1.5,0,0,1,14,15.49Z"/>
            <path d="M34,14.29c0-4.48,2.78-6.69,6.71-6.69s6.24,2.38,6.24,6.34a10.93,10.93,0,0,1-.08,1.26H37.32a3.25,3.25,0,0,0,3.35,3.24,2.94,2.94,0,0,0,2.57-1.3h3.27C45.79,19.45,43.68,21,40.69,21,36.57,21,34,18.59,34,14.29Zm9.6-1.38a3,3,0,0,0-3.06-2.78,3.13,3.13,0,0,0-3.12,2.78Z"/>
            <path d="M48.86,20.63V7.94H52l.24,2h.24c.88-1.28,2.06-1.95,4.34-1.95v3.15a5.8,5.8,0,0,0-.92-.05c-2.42,0-3.66,1.28-3.66,4v5.63Z"/>
            <path d="M57.5,17c0-2.66,2.28-4.18,5.36-4.18a13.6,13.6,0,0,1,3.12.32v-.76a2.16,2.16,0,0,0-2.42-2.29c-1.33,0-2.16.67-2.16,1.67v.13H58.08a1.19,1.19,0,0,1,0-.32c0-2.58,2.09-4,5.56-4,3,0,5.72.88,5.72,5.33v7.7h-3.1L66,18.93h-.24a4.93,4.93,0,0,1-4.24,2A3.69,3.69,0,0,1,57.5,17ZM66,15.44a10.84,10.84,0,0,0-2.54-.32c-1.82,0-2.67.71-2.67,1.72s.66,1.43,1.72,1.43A3.22,3.22,0,0,0,66,15.44Z"/>
            <path d="M71.14,17v-.1h1.51V17c0,1.43,1,2.65,3.88,2.65s3.86-1,3.86-2.58c0-3.29-8.91-.51-8.91-5.63,0-2.08,1.51-3.83,5.1-3.83s5.07,1.87,5.07,4v.1H80.14v-.12c0-1.5-1.21-2.63-3.56-2.63S73,9.91,73,11.48c0,3.49,8.9.47,8.9,5.66,0,2.09-1.5,3.83-5.36,3.83C73,21,71.14,19.35,71.14,17Z"/>
            <path d="M83.14,14.29c0-4.53,2.89-6.69,6.14-6.69a5.2,5.2,0,0,1,5.41,4.13H93.18a3.86,3.86,0,0,0-3.9-2.8c-2.6,0-4.63,1.89-4.63,5.36s2,5.35,4.63,5.35a3.86,3.86,0,0,0,3.9-2.8h1.51A5.2,5.2,0,0,1,89.28,21C86,21,83.14,18.81,83.14,14.29Z"/>
            <path d="M95.91,17.29c0-2.88,2.5-4.26,6-4.26a15.58,15.58,0,0,1,3.49.4v-.57c0-2.24-1.28-3.93-3.76-3.93-2,0-3.59.88-3.61,2.7v0H96.5v0c0-2.73,2.25-4.06,5.09-4.06,2.47,0,5.29,1.23,5.29,5.33v7.7h-1.27l-.24-2.07h-.24A5.48,5.48,0,0,1,100.35,21C97.49,21,95.91,19.62,95.91,17.29Zm9.46-2.56a17.12,17.12,0,0,0-3.42-.39c-3,0-4.53,1.18-4.53,2.9s1.09,2.4,2.93,2.4C103,19.64,105.15,18.17,105.37,14.73Z"/>
            <path d="M109.24,20.63V7.94h1.26l.25,2.07H111a5.34,5.34,0,0,1,4.77-2.41c3.47,0,5.32,2,5.32,6.27v6.76h-1.51V13.5c0-3.17-1.86-4.57-4-4.57-2.83,0-4.77,1.84-4.77,5.36v6.34Z"/>
        </g>
    </g>
</svg>