<?xml version="1.0" encoding="UTF-8"?>
<svg width="131px" height="25px" viewBox="0 0 131 25" version="1.1" xmlns="http://www.w3.org/2000/svg" xmlns:xlink="http://www.w3.org/1999/xlink">
    <!-- Generator: Sketch 42 (36781) - http://www.bohemiancoding.com/sketch -->
    <title>Page 1</title>
    <desc>Created with Sketch.</desc>
    <defs></defs>
    <g id="Page-1" stroke="none" stroke-width="1" fill="none" fill-rule="evenodd">
        <g>
            <path d="M29.9122727,7.91291667 L29.9122727,7.91291667 C29.8967424,7.91291667 29.8819697,7.91291667 29.8668182,7.91215909 L14.1160606,7.04170455 C13.9016667,7.03034091 13.7289394,6.93185606 13.6418182,6.77011364 C13.5554545,6.61064394 13.5668182,6.41140152 13.6740152,6.22465909 L16.9562121,0.547007576 C17.1365152,0.234886364 17.5437121,3.78787879e-05 17.904697,3.78787879e-05 L25.5906818,0.00685606061 C25.9512879,0.00761363636 26.3577273,0.243598485 26.5368939,0.556477273 L30.3361364,7.14890152 C30.4437121,7.33526515 30.4550758,7.52996212 30.3679545,7.67996212 C30.2831061,7.82806818 30.1160606,7.91291667 29.9122727,7.91291667" id="Fill-1" fill="#3CB3E7"></path>
            <path d="M0.559356061,16.3279924 L16.2313258,17.1950379 C16.4445833,17.2071591 16.6176894,17.3048864 16.7048106,17.4658712 C16.793447,17.6253409 16.7839773,17.8257197 16.6786742,18.0135985 L13.4786742,23.7098106 C13.3048106,24.0196591 12.8919318,24.2620833 12.5354924,24.2620833 L12.5347348,24.2620833 L4.84875,24.2545076 C4.49496212,24.2541288 4.07943182,24.0135985 3.9017803,23.7071591 L0.0896590909,17.0893561 C-0.0175378788,16.90375 -0.0285227273,16.7098106 0.058219697,16.559053 C0.149886364,16.4010985 0.330189394,16.3128409 0.559356061,16.3279924" id="Fill-3" fill="#573F98"></path>
            <g id="Group-7" transform="translate(0.000000, 8.017424)" fill="#3D70B7">
                <path d="M0.545492424,8.06901515 L25.5583712,8.1080303 L25.5598864,8.1080303 C25.9197348,8.1080303 26.3261742,7.87393939 26.5064773,7.56333333 L30.3352652,0.944393939 C30.4451136,0.755757576 30.4553409,0.557272727 30.365947,0.401212121 C30.2757955,0.244772727 30.0989015,0.154242424 29.8807197,0.154242424 L4.86367424,0.120151515 C4.50988636,0.120151515 4.09397727,0.358787879 3.91632576,0.665606061 L0.0909469697,7.27810606 C-0.0185227273,7.46636364 -0.0298863636,7.66484848 0.0606439394,7.82090909 C0.149659091,7.97772727 0.327310606,8.06863636 0.545492424,8.06901515" id="Fill-5"></path>
            </g>
            <path d="M65.48375,22.93625 C63.2023106,22.93625 61.728447,21.3074621 61.728447,18.7870076 C61.728447,16.1885227 63.1757955,14.6370076 65.6000379,14.6370076 C66.7958712,14.6370076 67.8280682,14.7173106 69.1227652,14.9120076 L69.1227652,21.7241288 C67.8011742,22.5839773 66.7405682,22.93625 65.48375,22.93625 M70.926553,13.4729924 C68.6155682,13.0256439 67.3223864,12.8892803 65.3905682,12.8892803 C62.0019318,12.8892803 59.79625,15.1854924 59.7716288,18.7400379 C59.7716288,22.2953409 61.9924621,24.6839773 65.2981439,24.6839773 C66.6598864,24.6839773 67.8208712,24.3396591 69.1227652,23.5396591 L69.1227652,24.1464773 C69.1227652,24.2514015 69.2076136,24.3358712 69.3121591,24.3358712 L70.8901894,24.3358712 C70.9947348,24.3358712 71.0795833,24.2514015 71.0795833,24.1464773 L71.0795833,13.6585985 C71.0795833,13.5680682 71.0151894,13.4900379 70.926553,13.4729924" id="Fill-8" fill="#573F98"></path>
            <path d="M92.7895833,12.8893182 C91.2926136,12.8893182 89.9471591,13.0389394 88.686553,13.3461364 L88.686553,7.67227273 C88.686553,7.56772727 88.6017045,7.48287879 88.4971591,7.48287879 L86.9191288,7.48287879 C86.8149621,7.48287879 86.7297348,7.56772727 86.7297348,7.67227273 L86.7297348,24.1465152 C86.7297348,24.2514394 86.8149621,24.3359091 86.9191288,24.3359091 L88.4971591,24.3359091 C88.6017045,24.3359091 88.686553,24.2514394 88.686553,24.1465152 L88.686553,15.1737879 C89.8706439,14.8673485 91.0501894,14.7298485 92.4880682,14.7298485 C94.3017045,14.7298485 95.3850379,15.8908333 95.3850379,17.8355303 L95.3850379,24.1465152 C95.3850379,24.2514394 95.4691288,24.3359091 95.5744318,24.3359091 L97.1520833,24.3359091 C97.2566288,24.3359091 97.3414773,24.2514394 97.3414773,24.1465152 L97.3414773,17.4643182 C97.3414773,14.6423485 95.5971591,12.8893182 92.7895833,12.8893182" id="Fill-10" fill="#573F98"></path>
            <path d="M105.666894,22.93625 C103.385833,22.93625 101.91197,21.3074621 101.91197,18.7870076 C101.91197,16.1885227 103.358939,14.6370076 105.783182,14.6370076 C106.979394,14.6370076 108.011212,14.7173106 109.305909,14.9120076 L109.305909,21.7241288 C107.984318,22.5839773 106.923333,22.93625 105.666894,22.93625 M111.109318,13.4729924 C108.79947,13.0256439 107.505909,12.8892803 105.574091,12.8892803 C102.185455,12.8892803 99.9793939,15.1854924 99.9555303,18.7400379 C99.9555303,22.2953409 102.175985,24.6839773 105.481667,24.6839773 C106.84303,24.6839773 108.004773,24.3396591 109.305909,23.5396591 L109.305909,24.1464773 C109.305909,24.2514015 109.391136,24.3358712 109.495303,24.3358712 L111.073333,24.3358712 C111.178258,24.3358712 111.262727,24.2514015 111.262727,24.1464773 L111.262727,13.6585985 C111.262727,13.5680682 111.198333,13.4900379 111.109318,13.4729924" id="Fill-12" fill="#573F98"></path>
            <path d="M116.574811,13.2373864 L114.99678,13.2373864 C114.892235,13.2373864 114.807386,13.3222348 114.807386,13.4267803 L114.807386,24.1464773 C114.807386,24.2514015 114.892235,24.3358712 114.99678,24.3358712 L116.574811,24.3358712 C116.678977,24.3358712 116.764205,24.2514015 116.764205,24.1464773 L116.764205,13.4267803 C116.764205,13.3222348 116.678977,13.2373864 116.574811,13.2373864" id="Fill-14" fill="#573F98"></path>
            <path d="M115.785795,8.20219697 C115.016477,8.20219697 114.435795,8.7825 114.435795,9.55181818 C114.435795,10.2953788 115.028977,10.8779545 115.785795,10.8779545 C116.542235,10.8779545 117.135417,10.2953788 117.135417,9.55181818 C117.135417,8.7825 116.554735,8.20219697 115.785795,8.20219697" id="Fill-16" fill="#573F98"></path>
            <path d="M58.4406818,13.1070076 C58.3709848,13.1039773 58.2444697,13.0994318 58.1156818,13.09375 C57.9285606,13.0857955 57.7357576,13.0778409 57.6899242,13.0778409 C55.9444697,13.0907197 54.0971212,13.263447 52.1993939,13.588447 C52.1122727,13.6032197 51.4304545,13.73125 51.4304545,13.73125 C51.3808333,13.7407197 51.3387879,13.7714015 51.3145455,13.8153409 C51.2906818,13.8600379 51.2865152,13.911553 51.3058333,13.9585227 L51.7993939,15.2005682 L51.7993939,24.16875 C51.7993939,24.2619318 51.8743939,24.3361742 51.967197,24.3361742 L53.5380303,24.3361742 C53.629697,24.3361742 53.704697,24.2619318 53.704697,24.16875 L53.704697,15.1721591 C55.2380303,14.999053 56.4687121,14.9619318 57.8319697,14.9607955 C57.9005303,14.9607955 57.9626515,14.91875 57.9880303,14.8551136 L58.5914394,13.3361742 C58.6115152,13.2861742 58.6062121,13.2285985 58.5755303,13.1831439 C58.5459848,13.1373106 58.4959848,13.1085227 58.4406818,13.1070076" id="Fill-18" fill="#573F98"></path>
            <path d="M83.6753788,22.2715152 C82.4871212,22.5673485 80.655303,22.8874242 79.767803,22.8874242 C77.2992424,22.8874242 75.6405303,21.22 75.6405303,18.7366667 C75.6405303,16.2014394 77.3333333,14.5631818 79.9530303,14.5631818 C80.7765152,14.5631818 81.8905303,14.7181061 83.0113636,14.9881818 C83.0943182,15.0086364 83.1765152,14.9643182 83.207197,14.8874242 L83.644697,13.7862879 C83.6492424,13.7756818 83.6526515,13.764697 83.6534091,13.7544697 L83.6742424,13.639697 C83.6901515,13.5590152 83.6424242,13.4783333 83.5640152,13.4510606 C82.517803,13.0953788 81.0636364,12.8650758 79.8609848,12.8650758 C76.1829545,12.8650758 73.7109848,15.2158333 73.7109848,18.7139394 C73.7109848,22.2404545 76.1272727,24.6093939 79.7223485,24.6093939 C80.7159091,24.6093939 82.4132576,24.3506818 83.7594697,23.9965152 C83.832197,23.9760606 83.8837121,23.9097727 83.8837121,23.8336364 L83.8837121,22.4343939 C83.8837121,22.3825 83.8606061,22.3340152 83.8200758,22.302197 C83.7787879,22.27 83.7253788,22.2593939 83.6753788,22.2715152" id="Fill-20" fill="#573F98"></path>
            <path d="M126.368561,12.9468561 C124.710985,12.9468561 122.720076,13.1180682 121.170455,13.3938258 C120.932576,13.4354924 119.949621,13.6506439 119.907197,13.6597348 C119.85947,13.6699621 119.817424,13.7014015 119.795076,13.7449621 C119.772348,13.7889015 119.768561,13.8392803 119.787121,13.8858712 L120.357576,15.3207197 L120.357576,24.130947 C120.357576,24.2241288 120.433712,24.2983712 120.525758,24.2983712 L122.096212,24.2983712 C122.189394,24.2983712 122.262879,24.2241288 122.262879,24.130947 L122.262879,15.0343561 C123.457955,14.8343561 124.703788,14.7370076 126.068561,14.7370076 C127.886742,14.7370076 128.972348,15.9006439 128.972348,17.84875 L128.972348,24.130947 C128.972348,24.2241288 129.047348,24.2983712 129.14053,24.2983712 L130.710606,24.2983712 C130.80303,24.2983712 130.877652,24.2241288 130.877652,24.130947 L130.877652,17.4801894 C130.877652,14.6839773 129.149621,12.9468561 126.368561,12.9468561" id="Fill-22" fill="#573F98"></path>
            <path d="M48.5461364,10.0661742 C48.6506818,10.0661742 48.7355303,9.98132576 48.7355303,9.8767803 L48.7355303,8.36844697 C48.7355303,8.26390152 48.6506818,8.17905303 48.5461364,8.17905303 L36.7514394,8.17905303 C36.6870455,8.17905303 36.6268182,8.21200758 36.5919697,8.26655303 C36.5575,8.32109848 36.5525758,8.38965909 36.5798485,8.44837121 L37.3813636,10.1745076 L37.3813636,24.1464773 C37.3813636,24.2514015 37.4658333,24.3358712 37.5707576,24.3358712 L48.5461364,24.3358712 C48.6506818,24.3358712 48.7355303,24.2514015 48.7355303,24.1464773 L48.7355303,22.6385227 C48.7355303,22.5335985 48.6506818,22.4491288 48.5461364,22.4491288 L39.4075,22.4491288 L39.4075,17.2127652 C39.4075,17.2127652 46.1211364,17.2131439 46.1268182,17.2127652 C46.1787121,17.2074621 46.2226515,17.1794318 46.2499242,17.1381439 L46.2715152,17.0930682 L47.0283333,15.5271591 C47.0347727,15.5089773 47.0400758,15.4904167 47.0400758,15.4703409 C47.0400758,15.3813258 46.9711364,15.3108712 46.8843939,15.3025379 C46.8790909,15.3017803 39.4075,15.3025379 39.4075,15.3025379 L39.4075,10.0661742 L48.5461364,10.0661742 Z" id="Fill-24" fill="#573F98"></path>
        </g>
    </g>
</svg>